inDegrees=no
num_controls=7
num_derivatives=13
num_iterations=109
num_multipliers=7
num_parameters=0
num_slacks=7
num_states=26
objective=4.911153
objective_accelerations=0.104426
objective_balance=0.004238
objective_effort=0.081459
objective_height=4.607858
objective_ligament=0.113172
solver_duration=1246.153703
status=Solve_Succeeded
success=true
DataType=double
version=3
OpenSimVersion=4.4-2022-07-23-0e9fedc
endheader
time	/jointset/ground_pelvis/pelvis_tilt/value	/jointset/ground_pelvis/pelvis_tx/value	/jointset/ground_pelvis/pelvis_ty/value	/jointset/hip_l/hip_flexion_l/value	/jointset/hip_l/hip_adduction_l/value	/jointset/hip_l/hip_rotation_l/value	/jointset/back/lumbar_extension/value	/jointset/patellofemoral_l/patellar_flexion_l/value	/jointset/knee_l/knee_flexion_l/value	/jointset/knee_l/knee_adduction_l/value	/jointset/knee_l/knee_rotation_l/value	/jointset/ankle_l/ankle_angle_l/value	/jointset/subtalar_l/subtalar_angle_l/value	/jointset/ground_pelvis/pelvis_tilt/speed	/jointset/ground_pelvis/pelvis_tx/speed	/jointset/ground_pelvis/pelvis_ty/speed	/jointset/hip_l/hip_flexion_l/speed	/jointset/hip_l/hip_adduction_l/speed	/jointset/hip_l/hip_rotation_l/speed	/jointset/back/lumbar_extension/speed	/jointset/patellofemoral_l/patellar_flexion_l/speed	/jointset/knee_l/knee_flexion_l/speed	/jointset/knee_l/knee_adduction_l/speed	/jointset/knee_l/knee_rotation_l/speed	/jointset/ankle_l/ankle_angle_l/speed	/jointset/subtalar_l/subtalar_angle_l/speed	/forceset/tau_hip_flexion_l	/forceset/tau_hip_adduction_l	/forceset/tau_hip_rotation_l	/forceset/tau_knee_flexion_l	/forceset/tau_ankle_angle_l	/forceset/tau_subtalar_angle_l	/forceset/tau_lumbar_extension	lambda_cid13_p0	lambda_cid13_p1	lambda_cid13_p2	lambda_cid13_p3	lambda_cid13_p4	lambda_cid13_p5	lambda_cid14_p0	/jointset/ground_pelvis/pelvis_tilt/accel	/jointset/ground_pelvis/pelvis_tx/accel	/jointset/ground_pelvis/pelvis_ty/accel	/jointset/hip_l/hip_flexion_l/accel	/jointset/hip_l/hip_adduction_l/accel	/jointset/hip_l/hip_rotation_l/accel	/jointset/back/lumbar_extension/accel	/jointset/patellofemoral_l/patellar_flexion_l/accel	/jointset/knee_l/knee_flexion_l/accel	/jointset/knee_l/knee_adduction_l/accel	/jointset/knee_l/knee_rotation_l/accel	/jointset/ankle_l/ankle_angle_l/accel	/jointset/subtalar_l/subtalar_angle_l/accel	gamma_cid13_p0	gamma_cid13_p1	gamma_cid13_p2	gamma_cid13_p3	gamma_cid13_p4	gamma_cid13_p5	gamma_cid14_p0
1	0.2064775583976194	0.1734232494348181	0.861387799581359	0.1352995412226839	-0.3665186917983604	-0.1444888601466888	-0.4311125961007296	0.668652649794148	0.6686526497941404	-0.03499122764081679	-0.1745141481078689	0.4361303162131925	0.2227760491350439	-0.1126348438931104	0.03783114361953045	0.01184819200886168	0.004931689808462329	0.01994574912891978	-0.07092747693409797	0.110386164462997	-0.1232406346332852	-0.1232406346332625	0.034234242023124	9.12702896896778e-05	-0.01896847239573526	0.02307249401324631	0.05167545731423584	0.03993461637217967	0.0004074004231534808	-0.2232865343444729	-0.06772644838053457	0.006365787416211992	0.02983679643641463	-48.98957456842285	5.759749759703882	-1.138380952366177	2.966444793753684	-475.3027461395469	-67.88993559803438	-16.33842399005962	-0.7494109436981744	0.04580152475056604	0.2439376652035033	-0.2242003950189673	0.2147561167399717	-0.5924007336692553	1.253972636530654	-1.789009648705369	-1.789009648705378	0.05084033870682898	0.002814006086797206	-0.9085032711688601	-0.1672635544877949	-1.341211050973695e-09	5.862922206690537e-09	-1.442598400488239e-08	3.448801356061934e-09	-8.929183489242032e-09	3.450513795608768e-09	3.441225464762086e-09
1.01	0.2053133845004409	0.1738036190737803	0.8615184589385525	0.1353383537159441	-0.3663085702589162	-0.1452277019289312	-0.4299457979972987	0.6673307508379396	0.6673307508378487	-0.03464661645464181	-0.1745133796264836	0.4358947761595968	0.2229980221314835	-0.1202148932921828	0.03822052991125506	0.01428752671399673	0.0028623503695543	0.02208764283202784	-0.07683882280829886	0.122977511750364	-0.1411718524712268	-0.1411718524712095	0.03468560076405612	6.34055952957761e-05	-0.02818883014188935	0.02130680409389324	0.05115277673305788	0.04050275546776311	0.0003611115054549303	-0.2216867259834956	-0.0697021845911307	0.006322874612379403	0.03005762880941759	-49.63747791566644	5.806167702194043	-1.047934277557726	3.480869396180426	-475.409444946192	-67.6508633967659	-16.38895774257932	-0.7645449945447194	0.03216987952211561	0.2445064215564819	-0.1935690706256128	0.2152696610439672	-0.59018981624862	1.26232410430541	-1.800083069703211	-1.800083069704028	0.04192579475620216	-0.005442710422660607	-0.9361955282828132	-0.1835161696334975	-1.511663505851483e-09	1.016003400544512e-08	-1.88714501917532e-08	4.186493206904953e-09	-1.020858256597594e-08	9.148919845254786e-09	4.195878754586705e-09
1.02	0.2040729614979726	0.1741872151152882	0.8616736266524759	0.1353574191444656	-0.3660767570496409	-0.1460255948303034	-0.4286529647550743	0.6658285586596223	0.6658285586596253	-0.03429756325029609	-0.1745128609928311	0.4355655538281368	0.2232018793369353	-0.1278846649525401	0.0384764241287049	0.01674986335479518	0.0009822768387454104	0.02428408309310631	-0.08273770076064296	0.1355931922163577	-0.159299279043748	-0.159299279043736	0.03512264562377167	4.130077209445773e-05	-0.03770492796581549	0.01944933581555803	0.05063009615304626	0.04107089456302845	0.0003148225887165777	-0.2200869176221575	-0.07167792080174643	0.006279961807996417	0.0302784611834056	-50.28901509439222	5.849843144106692	-0.9531911170573802	3.992173853698372	-475.5976508983223	-67.43479679988255	-16.44650716848254	-0.7673553959545255	0.01910310989511225	0.2485380523362101	-0.1863472133989043	0.2256654283342016	-0.58990714929795	1.258839272256267	-1.828251395620994	-1.828251395620971	0.04797756246393769	0.003965980325285445	-0.9676512867236998	-0.1856192262842125	-1.54979345008749e-09	1.36902738780291e-08	-2.300886652994829e-08	4.774331403435402e-09	-1.144776585905413e-08	1.415212454944722e-08	4.920374208519122e-09
1.03	0.2027553534977166	0.1745727229265704	0.8618535280457424	0.1353586183922775	-0.3658227214965355	-0.1468823837901606	-0.4272338789934346	0.6641440684794201	0.6641440684792389	-0.03394427786915336	-0.1745125272239688	0.4351396915537741	0.2233866809086934	-0.1356562997222966	0.03860481393065357	0.01923383663291686	-0.000711457276660855	0.02653149076310481	-0.08861704275887382	0.1482257363856458	-0.1776361422333005	-0.1776361422332724	0.03552808811782759	2.688113032325558e-05	-0.047517025936688	0.01749486099976328	0.0502172258439354	0.04155270653822494	0.0002687687771261579	-0.2186169907722535	-0.07333532844211083	0.006199657258999006	0.03039878165954039	-50.83670473035561	5.904046725947529	-0.8743721900793596	4.429689049623845	-475.6994092104131	-67.20425085260436	-16.51111367444967	-0.7849714479010889	0.006659359977199894	0.2488376209643467	-0.1562404835854785	0.2255496911372095	-0.5864860689524087	1.265728430729649	-1.842012696964412	-1.842012696962042	0.03587812412895879	-0.003935717409781693	-0.9954133185293994	-0.202778630127867	-1.58657316462307e-09	1.721268852687663e-08	-2.714313950234056e-08	5.360640481044294e-09	-1.268653878699298e-08	1.914823536235951e-08	5.644561929432231e-09
1.04	0.2013594483636817	0.1749589051247995	0.8620583713028741	0.1353438095044766	-0.3655459576157818	-0.1477978738387745	-0.4256884145017796	0.6622750878839515	0.6622750878838543	-0.03358712795679607	-0.1745122956078391	0.4346142234464412	0.2235514543281132	-0.1435440917086352	0.0386113015180768	0.02173823612781085	-0.002219350310983297	0.02882974862529426	-0.09447791851178262	0.1608689382135124	-0.1961973620765274	-0.1961973620764837	0.03589555186199032	2.087024929212542e-05	-0.057626094557983	0.01544370534793803	0.04980435553641802	0.04203451851334627	0.0002227149660867028	-0.21714706392178	-0.07499273608236026	0.006119352709935143	0.03051910213691532	-51.3881717332567	5.955398729144353	-0.7910860921189691	4.865476441738105	-475.8849172885884	-66.99774043171139	-16.58283383032354	-0.7905868392703113	-0.005277333010502611	0.2526232956906982	-0.1491789971818679	0.2358354667724996	-0.5862139002337307	1.26097080397226	-1.873122726355537	-1.873122726355633	0.04038181248570036	0.005647732473062713	-1.027045416808674	-0.2049553934904009	-1.691234761274954e-09	2.207460770736501e-08	-3.236217041290863e-08	6.149569756936794e-09	-1.36193570764338e-08	2.63032789011719e-08	6.44216060258201e-09
1.05	0.1998841079210264	0.1753445573807184	0.8622883438198338	0.1353148361896593	-0.3652459583878729	-0.1487718683680158	-0.4240165040601258	0.6602194316302168	0.6602194316302252	-0.03322648228641845	-0.1745120738263	0.433986236670272	0.223695267720196	-0.151541498259777	0.03850019823925948	0.02425804989822757	-0.003545282075879924	0.03117916205585633	-0.100318066737448	0.1735112142177965	-0.2149658708436301	-0.2149658708435943	0.03623045290629971	2.58194511249983e-05	-0.06801527699730207	0.01330750843323644	0.04943079670796627	0.04244538793020294	0.0001769740412788224	-0.2156732814159159	-0.07646440450290189	0.006013719150788327	0.03058194450001434	-51.87380162117997	6.010695424183668	-0.7135367720382123	5.255512503394798	-475.9356903604674	-66.77126635204476	-16.66170339961845	-0.8069418829341994	-0.01686814379206956	0.2519248950617956	-0.1197950681746844	0.235856765056466	-0.5824713147354681	1.265565614432925	-1.883513734372774	-1.883513734373808	0.0295775354718088	-0.001736767506829884	-1.05145611369553	-0.2196711971350148	-1.798017666742973e-09	2.697838640446716e-08	-3.761510000904469e-08	6.944830914025656e-09	-1.454261428342154e-08	3.352578908766865e-08	7.242053367989185e-09
